<svg width="122" height="12" viewBox="0 0 122 12" fill="none" xmlns="http://www.w3.org/2000/svg">
<path d="M6.62094 11.75H0.782776V0.172821H6.35127C7.16149 0.172821 7.84227 0.273471 8.39361 0.47477C8.94494 0.67607 9.36084 0.990295 9.6425 1.41622C9.92296 1.84214 10.0644 2.38957 10.0644 3.0573C10.0644 3.72502 9.87622 4.31051 9.49867 4.74257C9.12113 5.17463 8.55661 5.43607 7.80271 5.52936V5.70242C8.71362 5.77116 9.3944 6.07188 9.84506 6.60091C10.2945 7.13116 10.5198 7.78784 10.5198 8.57094C10.5198 9.21658 10.376 9.77751 10.0896 10.2562C9.80311 10.7349 9.36923 11.1031 8.79033 11.3621C8.21023 11.6211 7.48749 11.7512 6.62214 11.7512L6.62094 11.75ZM3.31413 2.50495V4.75116H6.18227C6.6545 4.75116 6.99729 4.67629 7.21183 4.52654C7.42517 4.37679 7.53184 4.0773 7.53184 3.62806C7.53184 3.15549 7.42158 2.84986 7.20224 2.71239C6.98291 2.57492 6.64251 2.50495 6.18107 2.50495H3.31293H3.31413ZM3.31413 6.8599V9.41788H6.53704C6.99848 9.41788 7.35206 9.343 7.60016 9.19325C7.84706 9.04351 7.97171 8.6986 7.97171 8.15607C7.97171 7.61354 7.85066 7.23427 7.60855 7.08452C7.36644 6.93477 7.00927 6.8599 6.53704 6.8599H3.31413Z" fill="white"/>
<path d="M13.9945 11.75H11.4631V0.172821H13.9945V11.7512V11.75Z" fill="white"/>
<path d="M19.8674 11.9231C18.7875 11.9231 17.8766 11.6837 17.1335 11.2062C16.3916 10.7288 15.8259 10.0426 15.4375 9.15029C15.0492 8.25795 14.855 7.19498 14.855 5.96141C14.855 4.72784 15.0744 3.70047 15.5131 2.80812C15.9517 1.91578 16.5822 1.22473 17.4032 0.734984C18.2242 0.245237 19.2082 0.000976562 20.3564 0.000976562C21.5046 0.000976562 22.4263 0.182638 23.191 0.545959C23.9557 0.90928 24.5346 1.41867 24.9289 2.07535C25.322 2.73202 25.5198 3.52127 25.5198 4.44307V4.52899H22.8374V4.46025C22.8374 3.72257 22.6457 3.21318 22.2633 2.93087C21.881 2.64856 21.2278 2.5074 20.3061 2.5074C19.6649 2.5074 19.1423 2.6056 18.7372 2.80076C18.3321 2.99715 18.0336 3.34574 17.843 3.84654C17.6513 4.34733 17.5566 5.05311 17.5566 5.96386C17.5566 6.87462 17.6573 7.60004 17.8598 8.10697C18.0624 8.6139 18.3824 8.96495 18.8211 9.16134C19.2597 9.35773 19.8338 9.4547 20.5422 9.4547C21.1379 9.4547 21.6245 9.40928 22.002 9.31599C22.3784 9.22394 22.66 9.05087 22.8458 8.79802C23.0316 8.54516 23.1239 8.18184 23.1239 7.70928V6.93109H25.5534V7.19007L23.3936 9.98986H23.1071C22.9944 10.2894 22.8123 10.5888 22.5582 10.8883C22.3053 11.1878 21.9589 11.4358 21.5202 11.6309C21.0815 11.8261 20.5302 11.9243 19.8662 11.9243L19.8674 11.9231ZM25.5534 7.75838H20.0352V5.59809H25.5534V7.75838ZM25.5534 11.75H23.2078V8.62249L23.1239 8.41506V5.90986H25.5534V11.7512V11.75Z" fill="white"/>
<path d="M35.5421 11.75H29.7039V0.172821H35.2724C36.0827 0.172821 36.7634 0.273471 37.3136 0.47477C37.8649 0.67607 38.2808 0.990295 38.5625 1.41622C38.8429 1.84214 38.9844 2.38957 38.9844 3.0573C38.9844 3.72502 38.7962 4.31051 38.4187 4.74257C38.0411 5.17463 37.4766 5.43607 36.7227 5.52936V5.70242C37.6336 5.77116 38.3144 6.07188 38.7638 6.60091C39.2133 7.13116 39.4386 7.78784 39.4386 8.57094C39.4386 9.21658 39.2948 9.77751 39.0083 10.2562C38.7219 10.7349 38.288 11.1031 37.7091 11.3621C37.1302 11.6211 36.4075 11.7512 35.5409 11.7512L35.5421 11.75ZM32.2353 2.50495V4.75116H35.1034C35.5757 4.75116 35.9185 4.67629 36.133 4.52654C36.3463 4.37679 36.4542 4.0773 36.4542 3.62806C36.4542 3.15549 36.3439 2.84986 36.1246 2.71239C35.9053 2.57369 35.5649 2.50495 35.1034 2.50495H32.2353ZM32.2353 6.8599V9.41788H35.4582C35.9197 9.41788 36.2732 9.343 36.5213 9.19325C36.7682 9.04351 36.8929 8.6986 36.8929 8.15607C36.8929 7.61354 36.7718 7.23427 36.5297 7.08452C36.2876 6.93477 35.9304 6.8599 35.4582 6.8599H32.2353Z" fill="white"/>
<path d="M45.447 11.9233C44.3108 11.9233 43.3399 11.679 42.5357 11.1893C41.7315 10.6995 41.1094 10.0085 40.6708 9.11613C40.2321 8.22378 40.0128 7.17187 40.0128 5.96284C40.0128 4.75382 40.2321 3.70191 40.6708 2.80956C41.1094 1.91721 41.7315 1.22617 42.5357 0.736418C43.3399 0.246671 44.3096 0.00241089 45.447 0.00241089C46.5844 0.00241089 47.5397 0.247899 48.3499 0.736418C49.1601 1.22617 49.781 1.91721 50.2149 2.80956C50.6475 3.70191 50.8645 4.75382 50.8645 5.96284C50.8645 7.17187 50.6475 8.22378 50.2149 9.11613C49.7822 10.0085 49.1601 10.7008 48.3499 11.1893C47.5397 11.679 46.5724 11.9233 45.447 11.9233ZM45.447 9.41808C46.0882 9.41808 46.6084 9.31743 47.0075 9.11613C47.4066 8.91483 47.6991 8.56255 47.8849 8.06176C48.0706 7.56097 48.1629 6.8601 48.1629 5.96162C48.1629 5.06313 48.0706 4.34876 47.8849 3.85288C47.6991 3.35822 47.4066 3.00963 47.0075 2.8071C46.6084 2.6058 46.0882 2.50515 45.447 2.50515C44.8058 2.50515 44.2688 2.6058 43.8697 2.8071C43.4706 3.0084 43.1781 3.357 42.9924 3.85288C42.8066 4.34876 42.7143 5.05086 42.7143 5.96162C42.7143 6.87237 42.8066 7.55974 42.9924 8.06176C43.1781 8.56255 43.4706 8.91483 43.8697 9.11613C44.2688 9.31743 44.795 9.41808 45.447 9.41808Z" fill="white"/>
<path d="M57.0395 11.9233C55.9032 11.9233 54.9324 11.679 54.1282 11.1893C53.3239 10.6995 52.7019 10.0085 52.2632 9.11613C51.8245 8.22378 51.6052 7.17187 51.6052 5.96284C51.6052 4.75382 51.8245 3.70191 52.2632 2.80956C52.7019 1.91721 53.3239 1.22617 54.1282 0.736418C54.9324 0.246671 55.902 0.00241089 57.0395 0.00241089C58.1769 0.00241089 59.1321 0.247899 59.9423 0.736418C60.7526 1.22617 61.3734 1.91721 61.8073 2.80956C62.24 3.70191 62.4569 4.75382 62.4569 5.96284C62.4569 7.17187 62.24 8.22378 61.8073 9.11613C61.3746 10.0085 60.7526 10.7008 59.9423 11.1893C59.1321 11.679 58.1649 11.9233 57.0395 11.9233ZM57.0395 9.41808C57.6807 9.41808 58.2009 9.31743 58.6 9.11613C58.9991 8.91483 59.2915 8.56255 59.4773 8.06176C59.6631 7.56097 59.7554 6.8601 59.7554 5.96162C59.7554 5.06313 59.6631 4.34876 59.4773 3.85288C59.2915 3.35822 58.9991 3.00963 58.6 2.8071C58.2009 2.6058 57.6807 2.50515 57.0395 2.50515C56.3982 2.50515 55.8613 2.6058 55.4621 2.8071C55.063 3.0084 54.7706 3.357 54.5848 3.85288C54.399 4.34876 54.3067 5.05086 54.3067 5.96162C54.3067 6.87237 54.399 7.55974 54.5848 8.06176C54.7706 8.56255 55.063 8.91483 55.4621 9.11613C55.8613 9.31743 56.3874 9.41808 57.0395 9.41808Z" fill="white"/>
<path d="M65.8644 11.75H63.333V0.172821H65.8644V11.7512V11.75ZM73.474 11.75H70.5711L68.0398 7.29196H64.564V4.78676H68.0062L70.655 0.172821H73.5232L70.1145 5.90986L73.4728 11.7512L73.474 11.75Z" fill="white"/>
<path d="M78.2671 11.9232C77.1644 11.9232 76.2535 11.7735 75.5332 11.474C74.8128 11.1745 74.2783 10.7314 73.9307 10.1434C73.5819 9.55547 73.4081 8.83619 73.4081 7.98313V7.7585H75.8891V7.93157C75.8891 8.35749 75.9562 8.6889 76.0917 8.9258C76.2271 9.16269 76.4716 9.32963 76.8252 9.42659C77.18 9.52479 77.7001 9.57388 78.3857 9.57388C79.0713 9.57388 79.5843 9.4941 79.8204 9.33208C80.0565 9.17129 80.1752 8.89389 80.1752 8.50233C80.1752 8.23721 80.138 8.02486 80.0649 7.86284C79.9918 7.70204 79.8312 7.56703 79.5843 7.45656C79.3362 7.34731 78.949 7.25157 78.4205 7.17179L76.4297 6.80847C75.7093 6.68204 75.1221 6.47092 74.6666 6.17757C74.2112 5.88421 73.8792 5.51475 73.6706 5.07165C73.4621 4.62854 73.359 4.10688 73.359 3.50789C73.359 2.9089 73.5076 2.34428 73.806 1.81403C74.1045 1.28378 74.5875 0.849264 75.2575 0.509264C75.9263 0.169264 76.7952 -0.00012207 77.8644 -0.00012207C78.9335 -0.00012207 79.8192 0.172947 80.488 0.517856C81.1568 0.863994 81.6494 1.33901 81.9646 1.94291C82.2798 2.54804 82.4368 3.23663 82.4368 4.00746V4.14616H79.939V3.95591C79.939 3.55331 79.8767 3.23663 79.7533 3.00587C79.6298 2.77511 79.4105 2.60818 79.0953 2.50508C78.7801 2.40197 78.3414 2.34919 77.7793 2.34919C77.0589 2.34919 76.5615 2.43266 76.2859 2.59959C76.0102 2.76652 75.8724 3.0341 75.8724 3.40356C75.8724 3.64536 75.9167 3.83807 76.0078 3.98291C76.0977 4.12652 76.2583 4.23944 76.4884 4.32046C76.7185 4.40147 77.0541 4.48739 77.4928 4.57944L79.5004 4.97713C80.2878 5.12688 80.9147 5.36623 81.3821 5.69396C81.8484 6.02291 82.1839 6.41692 82.3865 6.87721C82.5891 7.33872 82.6897 7.85056 82.6897 8.41518C82.6897 9.02645 82.5435 9.59843 82.2511 10.1348C81.9586 10.67 81.4912 11.102 80.8512 11.431C80.2099 11.76 79.3494 11.9232 78.2695 11.9232H78.2671Z" fill="white"/>
<path d="M85.8935 11.75H83.3621V0.172821H85.8935V11.7512V11.75ZM92.1032 7.08452H84.0717V4.76834H92.1032V7.08452ZM93.3521 11.75H90.8207V0.172821H93.3521V11.7512V11.75Z" fill="white"/>
<path d="M97.1827 11.7501H94.6513V0.172949H97.1827V11.7514V11.7501ZM103.274 2.50508H95.3597V0.171722H103.274V2.50508ZM103.021 7.08465H95.3597V4.76847H103.021V7.08465ZM103.274 11.7501H95.3597V9.41678H103.274V11.7501Z" fill="white"/>
<path d="M106.8 11.75H104.269V0.172821H106.8V11.7512V11.75ZM112.638 11.75H104.977V9.41665H112.638V11.75Z" fill="white"/>
<path d="M115.782 11.7501H113.25V0.172949H115.782V11.7514V11.7501ZM121.739 2.50508H113.96V0.171722H121.739V2.50508ZM121.486 7.46515H113.96V5.14898H121.486V7.46515Z" fill="white"/>
</svg>
