<svg width="34" height="35" viewBox="0 0 34 35" fill="none" xmlns="http://www.w3.org/2000/svg">
<path d="M15.6136 0.735894V13.948C15.6136 15.378 14.4822 16.5379 13.0846 16.5379H0C0.665199 8.02319 7.29321 1.23055 15.6052 0.548096C15.6112 0.610695 15.6124 0.672067 15.6124 0.735894H15.6136Z" fill="#F4CE47"/>
<path d="M33.9814 16.5381H20.8968C19.5005 16.5381 18.3679 15.3782 18.3679 13.9482V0.736077C18.3679 0.67225 18.3703 0.609651 18.375 0.548279C26.687 1.23073 33.3162 8.02337 33.9803 16.5381H33.9814Z" fill="#F4CE47"/>
<path d="M15.6136 21.9475V35.1609C15.6136 35.2235 15.6112 35.2849 15.6064 35.3474C7.29321 34.6638 0.665199 27.8736 0 19.3589H13.0846C14.4822 19.3589 15.6136 20.5176 15.6136 21.9475Z" fill="#F4CE47"/>
<path d="M33.9815 19.3586C33.3163 27.8733 26.6883 34.6635 18.3763 35.346C18.3703 35.2834 18.3691 35.222 18.3691 35.1594V21.9461C18.3691 20.5161 19.5017 19.3574 20.898 19.3574H33.9827L33.9815 19.3586Z" fill="#F4CE47"/>
</svg>
