<svg width="24" height="24" viewBox="0 0 24 24" fill="none" xmlns="http://www.w3.org/2000/svg">
<path d="M3.35399 17.4147C4.91563 18.4191 6.77547 18.9999 8.76872 18.9999C15.3292 18.9999 19.0332 13.4596 18.8135 8.48427C19.504 7.98988 20.1004 7.36208 20.5791 6.65581C19.9435 6.93832 19.2608 7.12666 18.5466 7.21299C19.2765 6.77353 19.8336 6.08295 20.1004 5.25897C19.4177 5.66703 18.6644 5.95739 17.8561 6.11434C17.2126 5.42377 16.2944 5 15.2743 5C12.9907 5 11.3191 7.12666 11.8292 9.33964C8.89429 9.19054 6.28892 7.78585 4.54679 5.6435C3.62079 7.22868 4.06809 9.30825 5.63758 10.3598C5.05687 10.3441 4.5154 10.1793 4.03671 9.92035C3.99747 11.5605 5.17459 13.0907 6.86964 13.4282C6.37525 13.5616 5.82593 13.593 5.27661 13.4909C5.72391 14.8956 7.03443 15.9158 8.58038 15.9472C7.09721 17.1086 5.22167 17.6344 3.34613 17.4068L3.35399 17.4147Z" fill="white"/>
</svg>
